<?xml version="1.0" encoding="UTF-8"?>
<!DOCTYPE svg PUBLIC "-//W3C//DTD SVG 1.1//EN" "http://www.w3.org/Graphics/SVG/1.1/DTD/svg11.dtd">
<svg xmlns="http://www.w3.org/2000/svg" version="1.1" width="2427px" height="827px" style="shape-rendering:geometricPrecision; text-rendering:geometricPrecision; image-rendering:optimizeQuality; fill-rule:evenodd; clip-rule:evenodd" xmlns:xlink="http://www.w3.org/1999/xlink">
<g><path style="opacity:0.991" fill="#ffffff" d="M 304.5,-0.5 C 321.167,-0.5 337.833,-0.5 354.5,-0.5C 455.248,9.27832 536.081,54.2783 597,134.5C 653.5,214.99 672.167,303.656 653,400.5C 625.486,513.345 558.319,592.511 451.5,638C 412.29,653.409 371.623,660.909 329.5,660.5C 329.5,632.833 329.5,605.167 329.5,577.5C 420.258,574.722 490.425,535.722 540,460.5C 581.212,390.037 587.879,316.37 560,239.5C 525.945,159.118 466.445,108.618 381.5,88C 287.384,71.3718 207.884,97.8718 143,167.5C 107.208,209.837 87.2076,258.837 83,314.5C 82.8333,429.835 82.3333,545.168 81.5,660.5C 54.1458,633.479 26.8125,606.479 -0.5,579.5C -0.5,487.833 -0.5,396.167 -0.5,304.5C 11.9268,190.081 66.9268,102.914 164.5,43C 208.088,18.2749 254.755,3.77493 304.5,-0.5 Z"/></g>
<g><path style="opacity:0.991" fill="#ffffff" d="M 314.5,164.5 C 387.006,161.489 441.173,191.156 477,253.5C 505.085,313.971 500.752,371.971 464,427.5C 430.336,471.75 385.503,494.416 329.5,495.5C 329.5,467.833 329.5,440.167 329.5,412.5C 362.295,410.861 386.795,395.861 403,367.5C 419.596,328.564 412.43,294.731 381.5,266C 351.144,243.938 319.478,241.938 286.5,260C 263.89,274.704 251.057,295.537 248,322.5C 247.833,490.168 247.333,657.834 246.5,825.5C 219.18,798.68 192.014,771.68 165,744.5C 164.333,600.833 164.333,457.167 165,313.5C 173.575,249.469 207.075,203.969 265.5,177C 281.444,170.765 297.777,166.598 314.5,164.5 Z"/></g>
<g><path style="opacity:0.988" fill="#ffffff" d="M 824.5,243.5 C 910.857,243.021 997.191,243.521 1083.5,245C 1141.1,255.605 1172.6,290.105 1178,348.5C 1181.73,384.256 1172.73,416.256 1151,444.5C 1129.88,467.306 1103.72,479.806 1072.5,482C 1023.17,482.5 973.834,482.667 924.5,482.5C 924.5,463.5 924.5,444.5 924.5,425.5C 973.168,425.667 1021.83,425.5 1070.5,425C 1103.43,418.065 1120.43,397.731 1121.5,364C 1121.29,330.529 1104.96,310.196 1072.5,303C 1009.19,301.533 945.856,301.033 882.5,301.5C 882.5,392.5 882.5,483.5 882.5,574.5C 863.167,574.5 843.833,574.5 824.5,574.5C 824.5,464.167 824.5,353.833 824.5,243.5 Z"/></g>
<g><path style="opacity:0.98" fill="#ffffff" d="M 1190.5,243.5 C 1216.84,243.333 1243.17,243.5 1269.5,244C 1311.62,294.46 1354.12,344.627 1397,394.5C 1439.86,344.612 1482.36,294.445 1524.5,244C 1549.5,243.333 1574.5,243.333 1599.5,244C 1541.71,312.128 1483.54,379.961 1425,447.5C 1424.5,489.832 1424.33,532.165 1424.5,574.5C 1404.59,574.826 1384.76,574.493 1365,573.5C 1364.67,531.5 1364.33,489.5 1364,447.5C 1305.93,379.608 1248.1,311.608 1190.5,243.5 Z"/></g>
<g><path style="opacity:0.985" fill="#ffffff" d="M 1645.5,243.5 C 1766.5,243.5 1887.5,243.5 2008.5,243.5C 2008.5,262.833 2008.5,282.167 2008.5,301.5C 1957.83,301.5 1907.17,301.5 1856.5,301.5C 1856.5,392.5 1856.5,483.5 1856.5,574.5C 1836.83,574.5 1817.17,574.5 1797.5,574.5C 1797.5,483.5 1797.5,392.5 1797.5,301.5C 1746.83,301.5 1696.17,301.5 1645.5,301.5C 1645.5,282.167 1645.5,262.833 1645.5,243.5 Z"/></g>
<g><path style="opacity:0.976" fill="#ffffff" d="M 2062.5,243.5 C 2082.17,243.5 2101.83,243.5 2121.5,243.5C 2121.5,288.833 2121.5,334.167 2121.5,379.5C 2192.83,379.5 2264.17,379.5 2335.5,379.5C 2335.5,396.833 2335.5,414.167 2335.5,431.5C 2264.17,431.5 2192.83,431.5 2121.5,431.5C 2121.5,479.167 2121.5,526.833 2121.5,574.5C 2101.92,574.826 2082.42,574.493 2063,573.5C 2062.5,463.501 2062.33,353.501 2062.5,243.5 Z"/></g>
<g><path style="opacity:0.99" fill="#ffffff" d="M 2426.5,243.5 C 2426.5,353.833 2426.5,464.167 2426.5,574.5C 2407.17,574.5 2387.83,574.5 2368.5,574.5C 2368.5,464.167 2368.5,353.833 2368.5,243.5C 2387.83,243.5 2407.17,243.5 2426.5,243.5 Z"/></g>
</svg>
